<svg id="Группа_1" data-name="Группа 1" xmlns="http://www.w3.org/2000/svg" width="256" height="5" viewBox="0 0 256 5">
  <metadata><?xpacket begin="﻿" id="W5M0MpCehiHzreSzNTczkc9d"?>
<x:xmpmeta xmlns:x="adobe:ns:meta/" x:xmptk="Adobe XMP Core 5.6-c138 79.159824, 2016/09/14-01:09:01        ">
   <rdf:RDF xmlns:rdf="http://www.w3.org/1999/02/22-rdf-syntax-ns#">
      <rdf:Description rdf:about=""/>
   </rdf:RDF>
</x:xmpmeta>
                                                                                                    
                                                                                                    
                                                                                                    
                                                                                                    
                                                                                                    
                                                                                                    
                                                                                                    
                                                                                                    
                                                                                                    
                                                                                                    
                                                                                                    
                                                                                                    
                                                                                                    
                                                                                                    
                                                                                                    
                                                                                                    
                                                                                                    
                                                                                                    
                                                                                                    
                                                                                                    
                           
<?xpacket end="w"?></metadata>
<defs>
    <style>
      .cls-1 {
        fill: #ff8f00;
      }
    </style>
  </defs>
  <path id="Прямоугольник_5" data-name="Прямоугольник 5" class="cls-1" d="M0,0H42a2,2,0,0,1,2,2V3a2,2,0,0,1-2,2H0A0,0,0,0,1,0,5V0A0,0,0,0,1,0,0Z"/>
  <rect id="Прямоугольник_5_копия_2" data-name="Прямоугольник 5 копия 2" class="cls-1" x="85" width="48" height="5" rx="2" ry="2"/>
  <rect id="Прямоугольник_5_копия_4" data-name="Прямоугольник 5 копия 4" class="cls-1" x="186" width="48" height="5" rx="2" ry="2"/>
  <rect id="Прямоугольник_5_копия_3" data-name="Прямоугольник 5 копия 3" class="cls-1" x="149" width="25" height="5" rx="2" ry="2"/>
  <rect id="Прямоугольник_5_копия" data-name="Прямоугольник 5 копия" class="cls-1" x="59" width="11" height="5" rx="2" ry="2"/>
  <path id="Прямоугольник_5_копия_5" data-name="Прямоугольник 5 копия 5" class="cls-1" d="M247,0h9a0,0,0,0,1,0,0V5a0,0,0,0,1,0,0h-9a2,2,0,0,1-2-2V2A2,2,0,0,1,247,0Z"/>
</svg>
